<svg height="512pt" viewBox="0 0 512 512" width="512pt" xmlns="http://www.w3.org/2000/svg"><path d="m512 256c0 141.386719-114.613281 256-256 256s-256-114.613281-256-256 114.613281-256 256-256 256 114.613281 256 256zm0 0" fill="#4a7aff"/><path d="m325.253906 502.511719c107.738282-30.203125 186.746094-129.128907 186.746094-246.511719 0-14.792969-1.269531-29.285156-3.679688-43.394531l-150.316406-150.316407-128.332031 1.082032 82.839844 82.839844-118.375 3.023437 75.929687 75.925781-92.402344 21.003906 42.855469 42.855469-58.65625 50.101563zm0 0" fill="#0053bf"/><path d="m48.546875 406c46.511719 64.21875 122.097656 106 207.453125 106s160.941406-41.78125 207.453125-106zm0 0" fill="#1dd882"/><path d="m255.59375 406v105.996094c.136719 0 .269531.003906.40625.003906 85.355469 0 160.941406-41.78125 207.453125-106zm0 0" fill="#06b26b"/><path d="m200.597656 136.25 157.003906 26.691406-13.820312 81.300782-157.003906-26.691407zm0 0" fill="#f2f6fc"/><path d="m237.835938 53.472656 111.976562 19.035156-13.820312 81.300782-111.980469-19.035156zm0 0" fill="#f2f6fc"/><path d="m233.460938 41.132812 124.554687 21.171876-3.78125 22.253906-124.554687-21.175782zm0 0" fill="#dce1eb"/><path d="m184.117188 233.183594 157.003906 26.691406-13.820313 81.300781-157.003906-26.691406zm0 0" fill="#f2f6fc"/><path d="m325.320312 352.8125-157-26.6875-16.804687 98.875h161.535156zm0 0" fill="#f2f6fc"/><g fill="#e9edf5"><path d="m357.59375 162.921875-78.632812-13.363281-14.011719 81.265625 78.824219 13.398437zm0 0"/><path d="m349.800781 72.496094-55.914062-9.503906-14.011719 81.265624 56.105469 9.535157zm0 0"/><path d="m341.117188 259.851562-78.863282-13.402343-14.011718 81.265625 79.058593 13.4375zm0 0"/><path d="m325.320312 352.8125-79.085937-13.445312-14.765625 85.632812h81.582031zm0 0"/></g><path d="m272.183594 128.792969-25.96875-4.414063 5.898437-34.703125c1.21875-7.171875 8.019531-11.996093 15.191407-10.78125 7.171874 1.21875 11.996093 8.019531 10.777343 15.191407zm0 0" fill="#cdd2e1"/><path d="m318.453125 136.65625-25.96875-4.414062 5.902344-34.703126c1.21875-7.171874 8.019531-11.996093 15.1875-10.777343 7.171875 1.21875 11.996093 8.019531 10.78125 15.1875zm0 0" fill="#bec3d2"/><path d="m223.902344 219.210938-24.789063-4.214844 6.402344-37.660156c1.160156-6.84375 7.65625-11.449219 14.5-10.289063 6.84375 1.164063 11.449219 7.65625 10.289063 14.503906zm0 0" fill="#cdd2e1"/><path d="m260.257812 225.386719-24.789062-4.210938 6.402344-37.660156c1.160156-6.84375 7.65625-11.453125 14.5-10.289063 6.84375 1.164063 11.449218 7.65625 10.289062 14.5zm0 0" fill="#cdd2e1"/><path d="m296.613281 231.566406-24.789062-4.210937 6.402343-37.660157c1.164063-6.84375 7.65625-11.453124 14.5-10.289062 6.847657 1.164062 11.453126 7.65625 10.289063 14.5zm0 0" fill="#bec3d2"/><path d="m332.972656 237.746094-24.789062-4.210938 6.398437-37.660156c1.164063-6.847656 7.65625-11.453125 14.503907-10.289062 6.84375 1.164062 11.449218 7.65625 10.285156 14.5zm0 0" fill="#bec3d2"/><path d="m208.09375 312.226562-24.789062-4.214843 6.398437-37.660157c1.164063-6.84375 7.65625-11.449218 14.5-10.289062 6.847656 1.164062 11.453125 7.65625 10.289063 14.503906zm0 0" fill="#cdd2e1"/><path d="m244.449219 318.40625-24.789063-4.214844 6.402344-37.660156c1.160156-6.84375 7.65625-11.449219 14.5-10.289062 6.84375 1.164062 11.449219 7.65625 10.289062 14.503906zm0 0" fill="#cdd2e1"/><path d="m280.804688 324.585938-24.789063-4.214844 6.402344-37.660156c1.160156-6.84375 7.65625-11.449219 14.5-10.289063 6.84375 1.164063 11.449219 7.65625 10.289062 14.503906zm0 0" fill="#bec3d2"/><path d="m317.160156 330.761719-24.789062-4.210938 6.402344-37.660156c1.164062-6.84375 7.65625-11.453125 14.5-10.289063 6.847656 1.164063 11.453124 7.65625 10.289062 14.5zm0 0" fill="#bec3d2"/><path d="m197.261719 375.945312c1.164062-6.847656-3.441407-13.339843-10.289063-14.503906-6.84375-1.160156-13.335937 3.445313-14.5 10.289063l-9.054687 53.269531h25.507812zm0 0" fill="#cdd2e1"/><path d="m233.617188 382.125c1.164062-6.847656-3.441407-13.339844-10.285157-14.503906-6.847656-1.160156-13.339843 3.445312-14.503906 10.289062l-8.003906 47.089844h25.507812zm0 0" fill="#cdd2e1"/><path d="m269.976562 388.304688c1.160157-6.847657-3.445312-13.339844-10.289062-14.503907-6.84375-1.160156-13.335938 3.445313-14.5 10.289063l-6.953125 40.910156h25.503906zm0 0" fill="#bec3d2"/><path d="m306.332031 394.480469c1.164063-6.84375-3.441406-13.335938-10.289062-14.5-6.84375-1.164063-13.335938 3.445312-14.5 10.289062l-5.902344 34.730469h25.503906zm0 0" fill="#bec3d2"/><path d="m200.375 112.574219 165.261719 28.09375-6.234375 36.671875-165.261719-28.09375zm0 0" fill="#dce1eb"/><path d="m183.894531 209.507812 165.265625 28.09375-6.234375 36.671876-165.265625-28.09375zm0 0" fill="#dce1eb"/><path d="m168.089844 302.46875 165.265625 28.09375-6.234375 36.671875-165.265625-28.09375zm0 0" fill="#dce1eb"/><path d="m358.003906 62.289062-62.175781-10.566406-3.835937 22.242188 62.230468 10.578125zm0 0" fill="#cdd2e1"/><path d="m365.628906 140.652344-82.710937-14.058594-6.320313 36.65625 82.796875 14.070312zm0 0" fill="#cdd2e1"/><path d="m349.152344 237.582031-82.9375-14.097656-6.320313 36.65625 83.027344 14.113281zm0 0" fill="#cdd2e1"/><path d="m333.351562 330.539062-83.160156-14.132812-6.320312 36.652344 83.25 14.152344zm0 0" fill="#cdd2e1"/></svg>